<svg width="160" height="160" viewBox="0 0 160 160" fill="none" xmlns="http://www.w3.org/2000/svg">
<g opacity="0.6" filter="url(#filter0_f_4_305)">
<path d="M73.1919 37.2792L86.2013 36.9254C86.2013 36.9254 111.47 51.6614 119.649 56.4312C121.209 57.3426 122.17 59.0153 122.17 60.8215V104.191C122.17 105.997 121.209 107.67 119.649 108.581C112.159 112.948 90.0996 125.814 82.5606 130.212C80.9769 131.135 79.0231 131.135 77.4394 130.212C69.9004 125.814 47.841 112.948 40.3512 108.581C38.7909 107.67 37.8304 105.997 37.8304 104.191L37.8304 60.8215C37.8304 59.0153 38.7909 57.3426 40.3512 56.4312C48.4384 51.7176 73.1919 37.2792 73.1919 37.2792Z" fill="url(#paint0_linear_4_305)"/>
</g>
<path d="M73.1919 37.2792L86.2013 36.9254C86.2013 36.9254 111.47 51.6614 119.649 56.4312C121.209 57.3426 122.17 59.0153 122.17 60.8215V104.191C122.17 105.997 121.209 107.67 119.649 108.581C112.159 112.948 90.0996 125.814 82.5606 130.212C80.9769 131.135 79.0231 131.135 77.4394 130.212C69.9004 125.814 47.841 112.948 40.3512 108.581C38.7909 107.67 37.8304 105.997 37.8304 104.191L37.8304 60.8215C37.8304 59.0153 38.7909 57.3426 40.3512 56.4312C48.4384 51.7176 73.1919 37.2792 73.1919 37.2792Z" fill="url(#paint1_linear_4_305)"/>
<path d="M106.614 31.9453C106.726 31.533 106.617 31.0915 106.326 30.7787C106.035 30.4658 105.603 30.3255 105.183 30.408C97.6955 31.8823 70.9918 37.1393 65.704 38.1803C65.1631 38.2869 64.7582 38.7387 64.7116 39.2881C64.2494 44.7329 61.8889 72.5456 61.2548 80.0146C61.2199 80.4264 61.3932 80.8283 61.7167 81.0858C62.0399 81.3431 62.4704 81.4218 62.8639 81.2954C65.5877 80.4201 70.7954 78.7466 73.6371 77.8334C74.0511 77.7002 74.5045 77.7947 74.831 78.0819C75.1577 78.3692 75.3092 78.8068 75.2299 79.2344C74.5754 82.7729 73.233 90.0288 72.5648 93.6399C72.4838 94.077 72.6441 94.5239 72.9844 94.81C73.3245 95.0964 73.7922 95.1777 74.2091 95.0231C76.2505 94.2666 79.371 93.1101 81.3974 92.3591C81.8105 92.2059 82.2741 92.2844 82.6139 92.5651C82.9534 92.8458 83.118 93.2861 83.0456 93.7208C82.1689 98.9803 79.8495 112.893 78.4328 121.392C78.3341 121.984 78.6747 122.561 79.2408 122.761C79.8065 122.96 80.4338 122.725 80.7281 122.202C88.7495 107.954 108.39 73.0666 114.041 63.0287C114.291 62.5859 114.243 62.0357 113.922 61.6419C113.601 61.2481 113.072 61.0909 112.588 61.2459C108.898 62.4281 102.722 64.4065 99.4613 65.4508C99.03 65.5892 98.5574 65.4802 98.2301 65.1668C97.9029 64.8537 97.7731 64.3864 97.8925 63.9495C99.6753 57.4068 104.932 38.1163 106.614 31.9453Z" fill="url(#paint2_linear_4_305)"/>
<defs>
<filter id="filter0_f_4_305" x="12.1254" y="11.2204" width="135.749" height="145.389" filterUnits="userSpaceOnUse" color-interpolation-filters="sRGB">
<feFlood flood-opacity="0" result="BackgroundImageFix"/>
<feBlend mode="normal" in="SourceGraphic" in2="BackgroundImageFix" result="shape"/>
<feGaussianBlur stdDeviation="12.8525" result="effect1_foregroundBlur_4_305"/>
</filter>
<linearGradient id="paint0_linear_4_305" x1="48.6743" y1="28.9568" x2="108.575" y2="106.927" gradientUnits="userSpaceOnUse">
<stop stop-color="#41D1FF"/>
<stop offset="1" stop-color="#BD34FE"/>
</linearGradient>
<linearGradient id="paint1_linear_4_305" x1="48.6743" y1="28.9568" x2="108.575" y2="106.927" gradientUnits="userSpaceOnUse">
<stop stop-color="#41D1FF"/>
<stop offset="1" stop-color="#BD34FE"/>
</linearGradient>
<linearGradient id="paint2_linear_4_305" x1="76.13" y1="32.9784" x2="87.4188" y2="110.418" gradientUnits="userSpaceOnUse">
<stop offset="0.391429" stop-color="#FCD53F"/>
<stop offset="1" stop-color="#FFA800"/>
</linearGradient>
</defs>
</svg>
