<?xml version="1.0" encoding="UTF-8" standalone="no"?>
<!DOCTYPE svg PUBLIC "-//W3C//DTD SVG 1.1//EN" "http://www.w3.org/Graphics/SVG/1.1/DTD/svg11.dtd">

<svg width="100%" height="100%" viewBox="0 0 700 700" version="1.1" xmlns="http://www.w3.org/2000/svg" xmlns:xlink="http://www.w3.org/1999/xlink" xml:space="preserve" xmlns:serif="http://www.serif.com/" style="fill-rule:evenodd;clip-rule:evenodd;stroke-linejoin:round;stroke-miterlimit:2;">
  <style type="text/css">
    #kirby-vite-logo-bg {
      fill: url(#kirby-vite-logo-gradient-bg);
    }

    #kirby-vite-logo-blur {
      fill: url(#kirby-vite-logo-gradient-blur);
      filter: blur(73px);
      opacity: 0.5;
    }

    #kirby-vite-logo-icon {
      filter: drop-shadow(5px 3px 18px rgb(0 0 0 / 0.2));
    }

    #kirby-vite-logo-flash {
      fill: url(#kirby-vite-logo-gradient-flash);
    }    
  </style>

  <circle id="kirby-vite-logo-blur" cx="350" cy="350" r="190"/>
  <g id="kirby-vite-logo-icon">
    <path id="kirby-vite-logo-bg" d="M325.211,197.52l46.43,-1.266c0,0 88.326,51.514 118.447,69.081c6.145,3.584 9.924,10.163 9.924,17.277l0,152.638c0,7.114 -3.779,13.692 -9.924,17.276c-27.257,15.897 -103.063,60.11 -130.5,76.112c-6.226,3.631 -13.925,3.631 -20.152,0c-27.437,-16.002 -103.243,-60.215 -130.5,-76.112c-6.145,-3.584 -9.924,-10.162 -9.924,-17.276l0,-152.638c0,-7.114 3.779,-13.693 9.924,-17.277c29.77,-17.363 116.275,-67.815 116.275,-67.815Z"/>
    <path id="kirby-vite-logo-flash" d="M446.977,173.978c0.455,-1.669 0.015,-3.455 -1.164,-4.721c-1.179,-1.267 -2.928,-1.834 -4.626,-1.5c-28.282,5.568 -123.776,24.368 -143.789,28.308c-2.189,0.431 -3.828,2.26 -4.017,4.483c-1.75,20.618 -10.199,120.166 -12.595,148.401c-0.142,1.667 0.559,3.294 1.868,4.335c1.309,1.042 3.051,1.36 4.644,0.848c9.915,-3.186 27.788,-8.93 38.123,-12.251c1.676,-0.538 3.511,-0.156 4.832,1.006c1.322,1.162 1.935,2.933 1.615,4.664c-2.4,12.972 -7.041,38.055 -9.489,51.288c-0.328,1.769 0.321,3.577 1.698,4.735c1.376,1.159 3.269,1.488 4.956,0.863c7.23,-2.68 17.675,-6.551 24.854,-9.212c1.673,-0.62 3.548,-0.302 4.923,0.834c1.374,1.136 2.04,2.918 1.747,4.676c-3.22,19.318 -11.203,67.208 -16.358,98.132c-0.4,2.395 0.979,4.73 3.269,5.538c2.29,0.807 4.829,-0.147 6.02,-2.263c29.923,-53.153 99.202,-176.209 120.36,-213.792c1.009,-1.791 0.818,-4.018 -0.482,-5.612c-1.299,-1.594 -3.442,-2.229 -5.4,-1.602c-13.328,4.269 -34.406,11.022 -46.22,14.806c-1.746,0.559 -3.658,0.118 -4.982,-1.149c-1.325,-1.268 -1.85,-3.158 -1.368,-4.927c6.679,-24.506 25.279,-92.761 31.581,-115.888Z"/>
  </g>

  <defs>
    <linearGradient id="kirby-vite-logo-gradient-bg" x1="0" y1="0" x2="0.4" y2="0.8">
      <stop offset="0%" stop-color="#41D1FF" />
      <stop offset="100%" stop-color="#BD34FE" />
    </linearGradient>
    <linearGradient id="kirby-vite-logo-gradient-blur" x1="0" y1="0" x2="1" y2="1">
      <stop offset="50%" stop-color="#47caff" />
      <stop offset="50%" stop-color="#bd34fe" />
    </linearGradient>
    <linearGradient id="kirby-vite-logo-gradient-flash" x1="0.3" y1="0.003" x2="0.4" y2="0.8">
      <stop offset="0%" stop-color="#FFEA83" />
      <stop offset="8%" stop-color="#FFDD35" />
      <stop offset="100%" stop-color="#FFA800" />
    </linearGradient>
  </defs>
      
</svg>
